<svg id="visual" viewBox="0 0 900 600" width="900" height="600" xmlns="http://www.w3.org/2000/svg" xmlns:xlink="http://www.w3.org/1999/xlink" version="1.1"><path d="M0 235L15 217C30 199 60 163 90 160C120 157 150 187 180 211C210 235 240 253 270 240C300 227 330 183 360 174C390 165 420 191 450 196C480 201 510 185 540 186C570 187 600 205 630 198C660 191 690 159 720 158C750 157 780 187 810 191C840 195 870 173 885 162L900 151L900 0L885 0C870 0 840 0 810 0C780 0 750 0 720 0C690 0 660 0 630 0C600 0 570 0 540 0C510 0 480 0 450 0C420 0 390 0 360 0C330 0 300 0 270 0C240 0 210 0 180 0C150 0 120 0 90 0C60 0 30 0 15 0L0 0Z" fill="#dcec38"></path><path d="M0 319L15 297C30 275 60 231 90 229C120 227 150 267 180 289C210 311 240 315 270 297C300 279 330 239 360 238C390 237 420 275 450 285C480 295 510 277 540 277C570 277 600 295 630 297C660 299 690 285 720 285C750 285 780 299 810 297C840 295 870 277 885 268L900 259L900 149L885 160C870 171 840 193 810 189C780 185 750 155 720 156C690 157 660 189 630 196C600 203 570 185 540 184C510 183 480 199 450 194C420 189 390 163 360 172C330 181 300 225 270 238C240 251 210 233 180 209C150 185 120 155 90 158C60 161 30 197 15 215L0 233Z" fill="#ace120"></path><path d="M0 487L15 455C30 423 60 359 90 348C120 337 150 379 180 409C210 439 240 457 270 440C300 423 330 371 360 357C390 343 420 367 450 377C480 387 510 383 540 389C570 395 600 411 630 419C660 427 690 427 720 425C750 423 780 419 810 413C840 407 870 399 885 395L900 391L900 257L885 266C870 275 840 293 810 295C780 297 750 283 720 283C690 283 660 297 630 295C600 293 570 275 540 275C510 275 480 293 450 283C420 273 390 235 360 236C330 237 300 277 270 295C240 313 210 309 180 287C150 265 120 225 90 227C60 229 30 273 15 295L0 317Z" fill="#74d511"></path><path d="M0 601L15 601C30 601 60 601 90 601C120 601 150 601 180 601C210 601 240 601 270 601C300 601 330 601 360 601C390 601 420 601 450 601C480 601 510 601 540 601C570 601 600 601 630 601C660 601 690 601 720 601C750 601 780 601 810 601C840 601 870 601 885 601L900 601L900 389L885 393C870 397 840 405 810 411C780 417 750 421 720 423C690 425 660 425 630 417C600 409 570 393 540 387C510 381 480 385 450 375C420 365 390 341 360 355C330 369 300 421 270 438C240 455 210 437 180 407C150 377 120 335 90 346C60 357 30 421 15 453L0 485Z" fill="#14c714"></path></svg>